<svg style="position: absolute; width: 96; height: 96; overflow: hidden;" version="1.1" xmlns="http://www.w3.org/2000/svg" xmlns:xlink="http://www.w3.org/1999/xlink">
<defs>
<symbol id="ballroom" viewBox="0 0 96 96">
<title>ballroom</title>
    <path d="M64.84,24.46c.62-.27,1.23-.56,1.8-.85a8.76,8.76,0,0,0-1.55-.16H59.75c-.15.61-.47,1.79-.94,3.25A42,42,0,0,0,64.84,24.46ZM44.78,26.09c-.37-1.18-.62-2.12-.75-2.64H41.38a7,7,0,0,0-2.85.57c-.79.21-2,.53-3.41,1A56.8,56.8,0,0,1,44.78,26.09Zm34.1-9a7.25,7.25,0,0,1,2.64.47c2.26.86,2.92,2.63,1.48,4a33,33,0,0,1-4.1,3.09c.44.73.81,1.38,1.11,2a10.9,10.9,0,0,1,1.11,2.89c-.48-.11-1-.24-1.42-.39-1.79-.56-3.52-1.2-5.16-1.9-1.19.64-2.45,1.25-3.68,1.83a48.78,48.78,0,0,1-14.59,4.22c-1.22,2.45-2.67,4.65-4.36,5.64a8.56,8.56,0,0,1-2.45-2.37,6.15,6.15,0,0,1-3.07,2.55c-1.22,2-1.72,3.55-1.58,4.66.24,1.81,1.44,3,2.72,4.33a21.23,21.23,0,0,1,1.62,1.85,20.45,20.45,0,0,1,3.32,4.66h3.74L65.38,87c.6,2.44,4.45,4.13,8.59,3.78s7-2.62,6.41-5.06c0,0,0-.11,0-.16L69.81,48.17V32.31c1.73.71,3.55,1.36,5.43,1.94a27,27,0,0,0,7.54,1.3A13.81,13.81,0,0,0,86,35.2,7.47,7.47,0,0,0,90,33a4.41,4.41,0,0,0,1-2.93,12,12,0,0,0-1.59-5.17,51.86,51.86,0,0,0-4.83-7.38c-1.12-1.46-4-2.1-6.49-1.44A4,4,0,0,0,75.39,18a6.92,6.92,0,0,1,3.49-.89ZM39.17,19.14c-.1.23-.2.45-.32.67,6.27,2.55,14.86,1.62,19.19-2.07S60.79,9,54.52,6.44,39.65,4.82,35.33,8.51a7.64,7.64,0,0,0-1.7,2C38.27,12.45,40.46,15.86,39.17,19.14Zm12.11,6L47,23.73v2.83l.76.16,3.54-1.19Zm5.51-1.44L52.5,25.17v.36L56.79,27Zm-4.4,3.88h.09a1.7,1.7,0,0,0-.61-.1h-.15C52,27.56,52.21,27.59,52.39,27.61Z"/>
  <path d="M50.82,33.31c-.33.35-.13.79.46,1A1.76,1.76,0,0,0,53,34a.52.52,0,0,0,.15-.35.37.37,0,0,0-.07-.24Q51.93,33.42,50.82,33.31ZM22.08,47.61c2.54.57,5.39-.17,6.36-1.67s-.3-3.17-2.84-3.74a25.34,25.34,0,0,1-5.12-1.61l-.24-.12a3,3,0,0,1-.9-.64.37.37,0,0,1-.13-.29,1.6,1.6,0,0,1,.55-.94v0a21.5,21.5,0,0,0-2-1.93,52.6,52.6,0,0,1-5.34.3c-.71,0-1.43,0-2.14-.07a4.81,4.81,0,0,0-.92,2.67,4.42,4.42,0,0,0,1.15,2.85,10.31,10.31,0,0,0,3.16,2.39h0a23.76,23.76,0,0,0,2.33,1A42.46,42.46,0,0,0,22.08,47.61Z"/>
  <ellipse cx="25.43" cy="17.25" rx="12.87" ry="7.58"/>
  <path d="M20.12,86.93v.38c-.07,2,2.62,3.65,6,3.69s6.18-1.54,6.25-3.54h0c-1,0-2,0-2.86,0A69.89,69.89,0,0,1,20.12,86.93ZM40.5,87l.28.82c.68,2,3.92,3.21,7.24,2.81s5.46-2.3,4.78-4.26L52.65,86a75.33,75.33,0,0,0-7.55.59c-1.3.16-2.7.33-4.6.48ZM9.1,36a20.52,20.52,0,0,0,3.34.24c2,0,4-.15,5.91-.36a16.63,16.63,0,0,1,4.16,4.69,34.42,34.42,0,0,0,3.53,1c3.17.7,4.77,2.78,3.58,4.65S24.9,49,21.73,48.3l-.09,0-.92-.22-.13.14c-3.52,2.36-14.06,17-10.29,37.42,8.79-.36,9.81,1.57,23.3,1.09s10.53-1.54,25-1.54c.28-20.75-9.06-33.85-10.53-34.9-1.58-2.1-4.17-3.64-4.54-6.47-.19-1.41.61-3.27,1.78-5.17,2.07-.82,3.31-2.19,3.3-3.66a2.55,2.55,0,0,0-.1-.72c.5-.6,1-1.21,1.55-1.8l.87.1a21.75,21.75,0,0,0,2.28.11c6,0,11.74-2,16.84-4.23A47.27,47.27,0,0,0,82,21.12c1.08-1,.56-2.35-1.16-3a5.43,5.43,0,0,0-5,.64A42.9,42.9,0,0,1,65.6,25c-4.4,2-9.32,3.39-12.35,3.34-.35,0-.69,0-1,0-1.71-.16-4-.75-7.05-1.4a56,56,0,0,0-11.73-1.25,81.52,81.52,0,0,0-19.1,2.14,33.12,33.12,0,0,0-6.08,2,9.66,9.66,0,0,0-2.09,1.26,2.71,2.71,0,0,0-1.16,2,2.22,2.22,0,0,0,1,1.7A7.08,7.08,0,0,0,9.1,36Z"/>
</symbol>
<symbol id="dance" viewBox="0 0 96 96">
<title>dance</title>
    <path d="M89.62,81.34,75,66.39H87.31L74.84,46.52l12-13.6c3.79-4.33-1.44-8.13-7.37-8.67a11.73,11.73,0,0,0-1.33-.08l-37,.11c-5.39-3-16.33-1.52-16.28,4.4L25,65.84,5.81,85.51c-4.15,4,5.55,7.78,9.71,3.82L37.9,66.51a1.39,1.39,0,0,1,1.35-.22c.47.17.63.54.36.83L32.87,74V87.42c-.12,1.87,2.26,3.46,5.33,3.53h6.22L44.2,35.32l12.22,7.39L50.7,49.23a4.26,4.26,0,0,0-1.23,3.29V90.94h5.77c3.06.08,5.65-1.38,5.77-3.25a1.31,1.31,0,0,0,0-.28v-21h1.92v.45a2.81,2.81,0,0,0,.92,1.9c5,5,16.1,16.41,16.1,16.41C84.05,89.11,93.75,85.31,89.62,81.34Zm-39-51.11H75c.53,0,1,.27,1,.59s-.42.59-1,.59l-8.75.1-4.67,5.41Zm31.63-7.95c4.83,0,8.78-2.92,8.78-6.51s-4-6.5-8.78-6.5-8.8,2.91-8.8,6.5S77.37,22.28,82.22,22.28Zm0-11.25c3.24,0,5.89,2.1,5.89,4.74s-2.65,4.74-5.89,4.74-5.91-2.09-5.91-4.74S79,11,82.22,11ZM54.33,14.86a4.67,4.67,0,0,0,4-1.12.76.76,0,0,0,0-.59V8L64,6.72,56.52,5v6.91c-.24-.06-.48-.11-.73-.15a4.63,4.63,0,0,0-4,1.1A.88.88,0,0,0,52,13.91,3.84,3.84,0,0,0,54.33,14.86Zm-20,6.42c4.85,0,8.78-2.93,8.78-6.51s-4-6.51-8.78-6.51-8.87,2.92-8.87,6.51S29.42,21.28,34.28,21.28Zm0-11.25c3.26,0,5.91,2.09,5.91,4.74s-2.65,4.75-5.91,4.75-5.92-2.1-5.92-4.75S31,10,34.28,10Z"/>
</symbol>
<symbol id="email" viewBox="0 0 96 96">
<title>email</title>
    <path d="M77.3,30.11v-15H59.8l0,0L48.1,5,36.35,15.11H18.9v15L5,42.07V91H91.2V42.07ZM31.45,63.59,7.78,86.36V45.7Zm2.7,1.25,27.78-.1L86.37,88.26H9.83Zm30.48-1.37,23.79-18V86.36ZM48.1,8.66l7.5,6.45h-15Zm-26.42,41V17.87H74.5V49.61h2.78V33.78l10.3,8.87L62,62l-28,.11L8.45,42.75l10.43-9V49.61Z"/>
    <path d="M33.18,54.16a16.72,16.72,0,0,0,5.39,3.66,17.51,17.51,0,0,0,7,1.37,24.78,24.78,0,0,0,11.21-2.56,1,1,0,0,0,.68-1,1.31,1.31,0,0,0-.34-1,1,1,0,0,0-.74-.32,8.44,8.44,0,0,0-2,.62,37.27,37.27,0,0,1-3.85,1.2,19.59,19.59,0,0,1-5,.48,14,14,0,0,1-10.78-4.49,13.58,13.58,0,0,1-2.8-4.5A16.08,16.08,0,0,1,31.1,42a15.69,15.69,0,0,1,1.43-6.38A18.65,18.65,0,0,1,42.18,26a17.15,17.15,0,0,1,7-1.44A16.9,16.9,0,0,1,60,28.18a13.43,13.43,0,0,1,3.67,4.43A14,14,0,0,1,65,39.16a12.4,12.4,0,0,1-1.6,6.55,5.15,5.15,0,0,1-4.66,2.65,2.06,2.06,0,0,1-1.88-.94,4.12,4.12,0,0,1-.56-2.11,21.3,21.3,0,0,1,.34-3.2L58.27,33c0-.11,0-.22,0-.34v-.52a1.41,1.41,0,0,0-.52-1,1.65,1.65,0,0,0-1.21-.51,1.85,1.85,0,0,0-1.21.41,1.69,1.69,0,0,0-.61,1.08l-.14.81a8.73,8.73,0,0,0-6.21-2.45,11.19,11.19,0,0,0-7.91,3,11.07,11.07,0,0,0-2.59,3.69,13.11,13.11,0,0,0-1,5.47,7.7,7.7,0,0,0,8.24,8,9.93,9.93,0,0,0,8-3.61,6.25,6.25,0,0,0,.48,1.31c.87,1.5,2.52,2.26,5,2.26a7.9,7.9,0,0,0,7-3.81,15,15,0,0,0,2-8.09A15.4,15.4,0,0,0,66.15,32a16.48,16.48,0,0,0-4-5.25,18.75,18.75,0,0,0-5.9-3.42,21.66,21.66,0,0,0-7.36-1.22,18.94,18.94,0,0,0-7.7,1.66,21.37,21.37,0,0,0-6.54,4.49,21.63,21.63,0,0,0-4.43,6.53,18.34,18.34,0,0,0-1.66,7.42,18,18,0,0,0,1.2,6.72,15.88,15.88,0,0,0,3.43,5.28ZM53.32,40.6a9.66,9.66,0,0,1-1.08,3.32,6.37,6.37,0,0,1-6,3.42A5.76,5.76,0,0,1,42.28,46a5.59,5.59,0,0,1-1.65-4.34,7.43,7.43,0,0,1,2.42-5.77,7.89,7.89,0,0,1,5.53-2,7.2,7.2,0,0,1,5.49,2.22ZM46.7,74.44h2.78V77.2H46.7Zm5.58,0h2.78V77.2H52.28Zm-11.14,0h2.78V77.2H41.14Z"/>
</symbol>
<symbol id="jive" viewBox="0 0 96 96">
<title>jive</title>
    <path d="M35,56.3a54.8,54.8,0,0,1,3.47,7.2,18.41,18.41,0,0,1,1.26,4.55,10.81,10.81,0,0,1-2.26,8.11,2.5,2.5,0,0,0-.52,2.06c.27,1.84.53,3.69.8,5.54.07.38.16.76.26,1.13a1,1,0,0,0,1,.84,8.15,8.15,0,0,0,2.31-.15c.46-.06.6-.34.59-.81V81.38a46.82,46.82,0,0,1,.76-8.19,29.79,29.79,0,0,0,.66-6,9.69,9.69,0,0,0-4.2-8.7,23.07,23.07,0,0,1-4.28-4.1c-.08-.09-.16-.26-.3-.22s-.19.26-.24.43a.88.88,0,0,0,.19.78A9.8,9.8,0,0,1,35,56.3Zm6.56,29.94a6.24,6.24,0,0,1-2.85.08c-.26-.07-.38.09-.3.36.24.81.46,1.64.69,2.44a6.11,6.11,0,0,0,.27.58c.06.11.14.26.3.23s0-.19.06-.29,0-.21,0-.32c0-.64.27-.79.86-.57a1.59,1.59,0,0,1,.37.18,12.8,12.8,0,0,0,2.93,1.25,3.39,3.39,0,0,0,1.62.38h.57c.17,0,.27,0,.29-.09s-.12-.25-.23-.3a7.31,7.31,0,0,0-1-.43,4.89,4.89,0,0,1-2-1.43,5.85,5.85,0,0,1-.95-1.71C42.05,86.31,41.9,86.18,41.55,86.24ZM52.32,33.66c-.25,0-.3.28-.26.5A13.09,13.09,0,0,0,52.65,37a.26.26,0,0,0,.18.21c.07,0,.16-.11.17-.21a4.51,4.51,0,0,0,0-.52A9.9,9.9,0,0,0,52.65,34C52.57,33.86,52.52,33.64,52.32,33.66Zm-23.22,54c-.06-.41-.28-.57-.71-.56a5.53,5.53,0,0,1-2.69-.45c-.28-.14-.38,0-.44.25-.23.77-.46,1.54-.67,2.33,0,.13-.05.31.08.38s.23-.09.31-.2c.63-.71.87-.75,1.64-.24l.16.12A7.33,7.33,0,0,0,31,90.69h.92c0-.23-.19-.27-.35-.31a3.32,3.32,0,0,1-2.44-2.59ZM51.23,34.58a18.8,18.8,0,0,0-2.47,1.31c-1.31.84-2.66,1.58-4,2.3a7.07,7.07,0,0,1-2.85,1c-1.81.07-2.52-.21-3-2a11.6,11.6,0,0,1-.14-5.88,4.06,4.06,0,0,0,0-2c-.32-1.22-.79-2.39-1.2-3.59a9.56,9.56,0,0,0-2.59-3.92c-.53-.49-.52-.49-1.08,0A10.09,10.09,0,0,1,30.21,24c-2,.62-3.95,1.16-5.87,2a41.13,41.13,0,0,0-5.57,2.11,16,16,0,0,0-6.94,7.21,53.41,53.41,0,0,0-3.09,8.63c-.2.72-.19.7.43.88a6.94,6.94,0,0,1,1.15.43c.42.2.63.07.73-.37a1.8,1.8,0,0,1,.1-.4,18.63,18.63,0,0,1,2.23-5.25,44,44,0,0,1,2.85-3.92,15.77,15.77,0,0,1,9.09-5.57c.2-.05.41-.08.56.12s0,.4-.11.57a24.06,24.06,0,0,0-2.34,5.73c-.86,3-1.56,6.08-2.16,9.16a40.48,40.48,0,0,0-.77,6.49c0,1.14,0,1.15,1.05,1.49a51.16,51.16,0,0,0,5.95,1.59,10.44,10.44,0,0,0,3.24.45H32c1.12-.06,1.45-.38,1.58-1.52a11,11,0,0,0-.29-3.57A10.36,10.36,0,0,1,34.48,42a.85.85,0,0,0-.11-1.12,9.68,9.68,0,0,1-1.81-5.1c0-.42-.18-.92.27-1.25.27.31.14.72.27,1.07a3.07,3.07,0,0,1,.07.42,10.3,10.3,0,0,0,2.94,5.81,4.1,4.1,0,0,0,2.66,1.28,9.42,9.42,0,0,0,6.28-1.48c.4-.28.85-.47,1.25-.76a43.45,43.45,0,0,0,4.52-3.09c1.3-1.16,1.31-1.13.88-2.94C51.62,34.54,51.53,34.45,51.23,34.58Z"/>
    <path d="M33.09,55.82a10.15,10.15,0,0,1-4.18,0,55.45,55.45,0,0,1-7.59-2c-.15,0-.31-.2-.47,0s-.06.33,0,.5a9,9,0,0,0,1.31,2.74,17,17,0,0,0,3.29,3.32A20,20,0,0,0,28,62.27a11.2,11.2,0,0,1,3.74,3.54,4,4,0,0,1,0,4.83c-1,1.39-1.83,2.82-2.85,4.18a20.23,20.23,0,0,0-3.63,9.61c-.08,1.35.09,1.61,1,1.85a7.09,7.09,0,0,0,1.52.18c1,0,1.26-.2,1.61-1.13a16.23,16.23,0,0,1,.93-2.09A15.82,15.82,0,0,1,33.87,79a21.47,21.47,0,0,0,3.71-4.35,10.07,10.07,0,0,0,1.15-8,35.12,35.12,0,0,0-4.5-10.12,2.7,2.7,0,0,0-.25-.34A.77.77,0,0,0,33.09,55.82Zm-25-9.2A14.36,14.36,0,0,1,5,50l-.18.22a.71.71,0,0,0,.29,0c.52-.18,1-.4,1.54-.59.15-.06.33-.14.49,0s.07.38,0,.55-.07.3.18.27h.28c.31.54.52.21.73-.07a16.24,16.24,0,0,0,.95-1.39A2.14,2.14,0,0,1,11,47.78l.95-.09a.66.66,0,0,0,.19-.09c-.05-.16-.19-.18-.31-.2a9,9,0,0,1-3.11-1A.46.46,0,0,0,8.11,46.62ZM35.9,16.09c.32-.49.64-.45,1-.08a.28.28,0,0,0,.36.1c.12-.09.12-.23.11-.38a5,5,0,0,0-.58-1.68c-.47-1-.34-1.37.57-1.86a1.65,1.65,0,0,0,1-1.31c.17-1,.42-1.13,1.34-.88.45.11.65.1.79-.44s.55-.66,1-.31a4.57,4.57,0,0,1,.43.45.94.94,0,0,0,1.35,0l.11-.16a3,3,0,0,0-.73-3.79A5.37,5.37,0,0,0,40,5a8.52,8.52,0,0,0-4.1,1,4.8,4.8,0,0,0-2.18,2.43,5.62,5.62,0,0,0,.29,4.69c.49,1,1.2,1.89,1.63,2.94C35.7,16.16,35.8,16.26,35.9,16.09Z"/>
    <path d="M36,20.82a7.78,7.78,0,0,1,2.4,1.45c.14.12.28.18.34-.1a4.89,4.89,0,0,1,1.42-2.28A2.89,2.89,0,0,0,41,17.74a5.25,5.25,0,0,0-.88-2.69c-.48-.69-1-1.39-1.36-2.11s-.4-.69-1.08-.3-.62.47-.35,1.1c.08.19.2.37.28.55A3.62,3.62,0,0,1,38,16c0,.65-.31,1-.95.77s-.57.11-.57.52a6.13,6.13,0,0,0,0,1.05,2.54,2.54,0,0,1-.51,2C35.75,20.57,35.72,20.7,36,20.82ZM10.88,46.59a.27.27,0,0,0,.18-.08.19.19,0,0,0-.08-.25h0a9.75,9.75,0,0,0-2.52-1l-.21,0v.16A7.33,7.33,0,0,0,10.88,46.59ZM35.5,21.65A8.58,8.58,0,0,1,38,25.24c.19.49.35,1,.55,1.48s.2,1,.58,1.27a6.33,6.33,0,0,0,.12-1.38v-1a4.11,4.11,0,0,0-2-3.48,12.57,12.57,0,0,0-1.47-.73c-.08,0-.24-.08-.27,0A.27.27,0,0,0,35.5,21.65Zm5.06-6.91a.21.21,0,0,0,.19,0l.09-.15a3.33,3.33,0,0,0-1.3-1.85c-.15-.06-.21.06-.17.14A5.12,5.12,0,0,0,40.56,14.74ZM58,33.15a1.49,1.49,0,0,0,.61-1,4.12,4.12,0,0,1-.78-1.82c0-.06-.19-.06-.28-.1a.62.62,0,0,1-.37-.34c-.21-.54-.45-.28-.64,0a15.78,15.78,0,0,1-2.77,2.94c-.55.46-.73.85-.44,1.49.18.38,0,1,.35,1.15s.79,0,1.19-.07A2.77,2.77,0,0,0,57.16,34,2.5,2.5,0,0,1,58,33.15Zm18.27-20.6a4.22,4.22,0,0,0,2.25-1.14c.27-.22.53-.45.81-.65s.43-.26.65,0,.09.39,0,.59a9.84,9.84,0,0,0-.39,3.24,10.42,10.42,0,0,1-.1,2,1.4,1.4,0,0,0,0,.29.41.41,0,0,0,.26-.13c.88-1,1.89-1.85,2.84-2.79a4.53,4.53,0,0,0,1.38-3A2.57,2.57,0,0,0,81.89,8.1,7.46,7.46,0,0,0,76.05,9a11.87,11.87,0,0,1-6.64,1.87,3.33,3.33,0,0,0-2.52.9,1.17,1.17,0,0,1-1,.35c-.73,0-.8,0-.86.77a2.57,2.57,0,0,0,.63,2.06,2.87,2.87,0,0,1,.77,2.69.67.67,0,0,0,.36.88h0c.76.32.88.87.65,1.63-.16.54,0,.64.5.45,1-.36,1.07-.35,1.36.66.09.29.25.38.39.13A3.13,3.13,0,0,1,72.51,20c.95,0,1.55-.7,2.29-1.08.26-.14.1-.38.09-.57a8.91,8.91,0,0,1,0-2.42c.13-.47.3-1-.11-1.37-.14-.15-.08-.4,0-.61A1.87,1.87,0,0,1,76.28,12.55ZM76,55.82a7.8,7.8,0,0,0-.94.4,1.83,1.83,0,0,1-1.3.16A3.82,3.82,0,0,1,72,55.6a2,2,0,0,0-1.61-.53H68.15a13.7,13.7,0,0,1-1.42-.28,1.37,1.37,0,0,0-.53.28A8.48,8.48,0,0,0,64,57.26a25.1,25.1,0,0,0-4.41,9.8,5.65,5.65,0,0,0-.07,1.79,3.14,3.14,0,0,0,1.25,2.33,24.52,24.52,0,0,0,2.58,1.71,32.44,32.44,0,0,1,5.82,3.92,12,12,0,0,1,3.56,4.83c.28.75.63,1.48.89,2.24,0,.14.1.31.24.31s.19-.25.2-.4a14.84,14.84,0,0,1,.1-2.11,7.41,7.41,0,0,0-.78-4.3,26.37,26.37,0,0,0-2.95-4.82A10.3,10.3,0,0,0,68,70.12a15.22,15.22,0,0,1-2.36-2.18,1.27,1.27,0,0,1-.28-1.71,4.68,4.68,0,0,1,.44-.71,7.57,7.57,0,0,1,2-1.69,36.26,36.26,0,0,0,6.27-5.07,26.12,26.12,0,0,0,2.15-2.55c.06-.09.15-.23.13-.28A.65.65,0,0,0,76,55.82Z"/>
    <path d="M89.19,47.53c.06-.2.08-.41.15-.62a30.64,30.64,0,0,0,1.11-7.62,21.36,21.36,0,0,0-1.06-6.64,37.77,37.77,0,0,0-3.73-8.36,13.47,13.47,0,0,0-1.81-2.43c-.42-.46-.54-.45-1,0l-.29.31a23.22,23.22,0,0,1-6,4.44,10.46,10.46,0,0,1-3.13,1,4.93,4.93,0,0,1-3.8-.89c-1.37-1.06-1.54-1-1.76.77v.1c-.24,1.89-.43,3.79-.82,5.65a10.71,10.71,0,0,1-1.74,4.26,2.28,2.28,0,0,1-3.21.71L61.85,38a15.21,15.21,0,0,1-3.08-3.69c-.39-.63-.49-.65-1-.11-.18.22-.33.45-.5.68a.74.74,0,0,0-.12.77,14.79,14.79,0,0,0,2.1,4.25,7.63,7.63,0,0,0,3.45,2.94,2.51,2.51,0,0,0,3.4-1.21h0a17.38,17.38,0,0,0,2.52-5.88,6.15,6.15,0,0,1,.58-2c.52-.87.95-.9,1.52,0a35.14,35.14,0,0,1,1.77,3.11,6.67,6.67,0,0,1,.67,2.32,8.86,8.86,0,0,1-7.11,9.25,16.22,16.22,0,0,1-3.67.37c-.44,0-.95,0-1.19.44a.86.86,0,0,1-1.1.51c-.16,0-.36-.07-.48.09s0,.41.1.58a5.53,5.53,0,0,0,4.07,2.34,5,5,0,0,1,2.2.78,4.2,4.2,0,0,0,2.71.82h1.44a3.06,3.06,0,0,1,2.28.7,2.29,2.29,0,0,0,2.69.33A2.73,2.73,0,0,1,76.74,55a1.09,1.09,0,0,0,1-.46,15.63,15.63,0,0,0,3-5.11A13.18,13.18,0,0,0,81,40.5a12.28,12.28,0,0,1-.78-4.57,7.86,7.86,0,0,1,.22-2.37,12.6,12.6,0,0,1,1.68-3.87c.54-.88,1-.86,1.54,0a33.79,33.79,0,0,1,2.51,4.12,20.55,20.55,0,0,1,1.11,2.43,20.67,20.67,0,0,1,.74,11,4.49,4.49,0,0,1-1.27,2.49c-.43.41-.44.41,0,.77a1.25,1.25,0,0,1,.39.59q.32.73.6,1.47a10.67,10.67,0,0,0,.9,1.9c.15.23.3.39.52,0,.13-.22.36-.13.53,0s.63.55.95.81c.1.08.24.21.35.09s0-.26,0-.39a1,1,0,0,0-.22-.55A7.22,7.22,0,0,1,89.19,47.53ZM58.94,66.6a23.8,23.8,0,0,1,1.9-5.47,18.09,18.09,0,0,1,4.68-6.47c.4-.33.4-.4,0-.68a2.78,2.78,0,0,0-1.61-.58,3.07,3.07,0,0,1-.95-.13.85.85,0,0,0-1,.28,25.13,25.13,0,0,0-1.95,2.17,34.57,34.57,0,0,0-4.56,8.7A10.72,10.72,0,0,0,55,70.3a27.49,27.49,0,0,1,.55,7v2.41a13.47,13.47,0,0,1-1.18,5.53c-.28.65-.64,1.24-1,1.86-.06.12-.18.25-.09.37s.24.09.38.07a6.57,6.57,0,0,0,2-.47,1.5,1.5,0,0,0,.77-.78,35.35,35.35,0,0,0,3.13-15,1,1,0,0,0-.16-.6,5.55,5.55,0,0,1-.45-4.13ZM74.13,86.18a5.9,5.9,0,0,0,.46,1.42,7.66,7.66,0,0,0,.27-2c0-1.22.12-2.46.19-3.68,0-.36,0-.73.49-.75.31,0,.3-.2.21-.43a12.66,12.66,0,0,0-1-2s-.1-.14-.14-.13-.07.14,0,.21a29.35,29.35,0,0,1,.06,5c0,.42,0,1-.3,1.18C73.86,85.37,74,85.75,74.13,86.18ZM55.7,87.73a25.86,25.86,0,0,1-3,.5.74.74,0,0,0-.46.2,21.59,21.59,0,0,1-2.65,1.79c-.23.18-.7.3-.59.61s.55.1.84.07a4.6,4.6,0,0,0,.5-.13,13.4,13.4,0,0,0,3.29-1.45,8.25,8.25,0,0,1,.95-.45c.27-.09.53-.07.63.33,0,.17-.12.48.14.5s.24-.31.32-.49A3,3,0,0,0,56,88C56,87.8,55.93,87.66,55.7,87.73ZM75.93,13.25a.83.83,0,0,0-.66.74.31.31,0,0,0,.19.27c.45.13.77-.34,1-.69a.26.26,0,0,0-.08-.36.23.23,0,0,0-.14,0A.38.38,0,0,0,75.93,13.25Z"/>
    <path d="M69.2,25.52A4.75,4.75,0,0,0,72.59,27a7.24,7.24,0,0,0,2-.34,16.06,16.06,0,0,0,5.48-3.11c.73-.59,1.39-1.25,2.08-1.89a.72.72,0,0,0,.13-.28.78.78,0,0,0-.27-.09,11,11,0,0,1-1.52-.12c-1.54-.24-2.12-1-1.9-2.63a4.23,4.23,0,0,1,.11-.62c.48-1.9.27-3.87.52-5.79,0-.16-.09-.31-.22-.18-.7.78-2,.83-2.27,2.12a1.28,1.28,0,0,1-.43.59,2.87,2.87,0,0,0-.87,2.2,8,8,0,0,0,.2,1.89,3.55,3.55,0,0,1-1.53,3.82,11.24,11.24,0,0,1-2.35,1.3,19.32,19.32,0,0,0-2.47,1.29C69.17,25.22,68.94,25.3,69.2,25.52ZM54.07,31.8A10,10,0,0,0,56,29.65a1.14,1.14,0,0,0,.1-.19.63.63,0,0,0-.1-.14,4,4,0,0,0-1.29.42,2.1,2.1,0,0,1-1.08,1.54c-.17.09-.1.39,0,.56S54,31.9,54.07,31.8Z"/>
</symbol>
<symbol id="latin" viewBox="0 0 96 96">
<title>latin</title>
    <path d="M52.89,68.36a51.54,51.54,0,0,1-5.51,1.83,30.5,30.5,0,0,1-9,1.2L33,75.49l-5.79,6.76a4.74,4.74,0,0,0,1,7.06,5.92,5.92,0,0,0,7.76-.89L53,68.38ZM38.69,44.85a13.15,13.15,0,0,0-.14-1.54l-.66.46ZM52.85,32.71l3.42-.4,3-8.51a11.94,11.94,0,0,1-1.89.15,6.35,6.35,0,0,1-.76,0,6.36,6.36,0,0,0-1.95,2,.27.27,0,0,0-.07.08l-.09.14c-.37.52-1.71,2.41-3.66,4.82A9.21,9.21,0,0,1,52.85,32.71ZM27,68.47,6.63,83.86A3.77,3.77,0,0,0,6,89.52a4.72,4.72,0,0,0,6.22.57l0,0L37.09,71.34A22.68,22.68,0,0,1,27,68.47Zm30,.16L47,83.46a3.79,3.79,0,0,0,1.08,5.6,4.71,4.71,0,0,0,6.16-1,3.51,3.51,0,0,0,.27-.4l13-19.3a3.83,3.83,0,0,0-1.45-5.54,4.79,4.79,0,0,0-1.07-.43l-2.27-.6c-4.35,2-3.93,3.81-8.72,6.06Z"/>
    <ellipse cx="38.63" cy="22.89" rx="8.84" ry="8.04"/>
    <path d="M47.38,69c12.38-3.49,8.57-5.34,14.52-8L61,60.45,60.14,60l6.58-7.72a28.51,28.51,0,0,1,4.72,16,36.65,36.65,0,0,1-3.65,15.49,4.87,4.87,0,0,0,2.95,6.58h0a5.93,5.93,0,0,0,2.13.41A5.55,5.55,0,0,0,78,87.69a45.82,45.82,0,0,0,4.51-19.38,38.6,38.6,0,0,0-3.66-16.54,30.43,30.43,0,0,0-1.77-3.26c2.44-9.3,3.09-13.78,1.67-21.89l.19.08a9.85,9.85,0,0,1,3.6,2.38A5.49,5.49,0,0,1,83.92,33c0,2.41-1.19,6.22-5.16,11.59a3,3,0,0,0,1,4.45,3.76,3.76,0,0,0,4.85-.87C89,42.14,91,37.24,91,33a11.67,11.67,0,0,0-3.16-8.11,19.4,19.4,0,0,0-9.6-5.18,28.88,28.88,0,0,0-5.47-.88H72.2a3.67,3.67,0,0,0-.66.13A30,30,0,0,0,67.78,20c1,5.4-2.58,13.85-2.58,10A7.29,7.29,0,0,0,65,28.37l-2.71,7.79a3.5,3.5,0,0,1-2.88,2.26l-.38,0c0,2.27-.8,5.08-2.43,9.25a.17.17,0,0,1,0,.1l-6.34,7.44c0,.37-.1.73-.14,1.09l-.38-.07-.31-1.43a40.29,40.29,0,0,1,1.77-7.12c2.49-.12,4.38-2.16,4.59-5.39a10.36,10.36,0,0,0-.4-3.41l-7.73.92-.47,0a3.39,3.39,0,0,1-3.53-3.23,3.06,3.06,0,0,1,.72-1.94,3.6,3.6,0,0,1,2.35-1.24l5.08-.62c-2.16-2.18-4.42-2.41-7.17-2A6.45,6.45,0,0,0,42,32a3.17,3.17,0,0,0-.49.32L31.13,41.09a2.26,2.26,0,0,0-.39,3.12l6.92,9.25c-.47,1.09-1,2.26-1.72,3.53l-1.77,2L27,67.25l.13.09C28.23,68,35.92,72.22,47.38,69ZM39,41a16.58,16.58,0,0,1,.45,6.27l-3-4.07Zm20.56-18.1,1.28-3.69a3.62,3.62,0,0,1,4.44-2.09,3.79,3.79,0,0,1,1.19.59c2.22-4.58-.07-9.93-5.1-11.95s-10.92.06-13.14,4.64.06,9.93,5.1,12A10.86,10.86,0,0,0,59.54,22.91Z"/>
    <path d="M46.83,34.26a2.5,2.5,0,0,0-2.47,2.57,2.58,2.58,0,0,0,2.82,2.25,2,2,0,0,0,.35,0l11.79-1.47A2.59,2.59,0,0,0,61.49,36l5.23-15a2.38,2.38,0,0,0-1.72-3,2.73,2.73,0,0,0-3.34,1.57L56.94,33Z"/>
</symbol>
<symbol id="salsa" viewBox="0 0 96 96">
<title>salsa</title>
    <path d="M70.65,39l-1.11-1.26L69,37.39l-.78,2.72a5.33,5.33,0,0,0,2.37-.71.29.29,0,0,0,.09-.43ZM5.31,20.88A.55.55,0,0,0,5,21a3.59,3.59,0,0,0-.6,2.08.37.37,0,0,0,.41.29l1.84-.15h.23L7,20.94l-.49-.24ZM49.54,89.07l-3.12-1.45,3.52-24.27L48.73,52.81a21.33,21.33,0,0,1,.51-7.29l.39-2.63a75.33,75.33,0,0,1-14-2.6L22.45,86.47l-1.23,3.15L26,91a1.27,1.27,0,0,0,1.51-.63.9.9,0,0,0-.26-1l-2.43-2.26,17.81-35.2L44,87.67V91h5a1.1,1.1,0,0,0,1.18-1h0A1,1,0,0,0,49.54,89.07Zm.68-50.25,1.63-11.19-10,3-5.41,8.6-.17.34A74.91,74.91,0,0,0,49.84,42ZM23.3,24.88l10.27-2.17s1.08,4,1.8,8.5l2.12-4,15.25-7a7.75,7.75,0,0,1,2.91-.68l-6.17-1.93v.12a3.07,3.07,0,0,1-3.06,3.19,4.61,4.61,0,0,1-.53,0,3.37,3.37,0,0,1-3.48-2.51c-.1-.38-.29-1.79-.29-1.79H34.44a9.36,9.36,0,0,0-2.12.21L22.16,20.7l-14,.15L8,23l14.21,1.9A3.26,3.26,0,0,0,23.3,24.88ZM42,16l-.13-.63a3.35,3.35,0,0,1-1.42-1.9A2.84,2.84,0,0,1,40.78,11a3,3,0,0,1,2.44-1.17c0-.26-.15-1.68-.15-1.68,1.25-.11,5.62-.46,6.68-.46l.72-.29.45.52a.73.73,0,0,1,.17.18A1.74,1.74,0,0,0,51.43,7a11.77,11.77,0,0,0-.21-2c-4.39.61-13.35-.34-12.88,6.64A5.54,5.54,0,0,0,42,16Z"/>
    <path d="M44.2,9a19.79,19.79,0,0,0,.25,2.29,1.85,1.85,0,0,0-3,2,2.5,2.5,0,0,0,1.44,1.55c.1.54.21,1.06.3,1.6a8.78,8.78,0,0,0,.25,1.79,2.41,2.41,0,0,0,2.73,1.87h0a2.2,2.2,0,0,0,2.24-2.18.28.28,0,0,1,0-.09,4.1,4.1,0,0,0-.15-1.29,4.71,4.71,0,0,0,1.86-8C49.9,8.53,44.45,8.94,44.2,9ZM32.49,39.13a4.26,4.26,0,0,0,1.84,1.22.44.44,0,0,0,.45-.22l.7-1.41L33.36,37.5l-.43.37-.38,1A.29.29,0,0,0,32.49,39.13Zm58.73,4.49L90,42.48h-.13l-2.12,1.38.15.3.89.72a.46.46,0,0,0,.34.12,4.29,4.29,0,0,0,2.12-.88.26.26,0,0,0,.06-.42A.39.39,0,0,0,91.22,43.62ZM59.55,12A4.26,4.26,0,0,0,61,13l3.41.54a3.21,3.21,0,0,1,1.06-.2H66a3.1,3.1,0,0,1,2.48,3.63,3.19,3.19,0,0,1-1.14,1.79L67,20a11.36,11.36,0,0,1,5.24,1,2.46,2.46,0,0,0-.66-2.9,3,3,0,0,0-.72-3.58A3.36,3.36,0,0,0,69.63,13a7,7,0,0,0-3.29-2.2A10,10,0,0,0,60,10.39a1.67,1.67,0,0,0-1,2.18Zm20,21.34-5.81-9.88a5.42,5.42,0,0,0-.89-1C71,21,69.14,21.08,66.74,21c-.4,1.79-1,3.58-4.11,3.32A3.18,3.18,0,0,1,60,22.12,2.24,2.24,0,0,1,60,21v-.34c-3.16-.16-4.88-.46-6.79.43L38.34,27.88l-4.86,8.65L36,38l5-8,12-3.58L50.3,45.48a23,23,0,0,0,15.23,0l5-17.42,5.31,8.27,11.24,6.79,2-1.31Z"/>
    <path d="M61.29,19.83,61,21.15a2,2,0,0,0,1.79,2.26,2.29,2.29,0,0,0,2.68-1.5s0,0,0-.06l.3-1.33.46-2.09a2.6,2.6,0,0,0,1.09-1.54,2.21,2.21,0,0,0-.62-2,1.75,1.75,0,0,0-1-.54,2.18,2.18,0,0,0-1.21.2,18.11,18.11,0,0,1-4.81-1,4.15,4.15,0,0,0-.74,1.63A4.51,4.51,0,0,0,61.29,19.83ZM80.76,89.12l-3-1.4L66.28,48l-.47-1.63a25.94,25.94,0,0,1-8,1.31,23.67,23.67,0,0,1-7.68-1.29,20.45,20.45,0,0,0-.31,6.34l3.94,35V91H58.6a1.07,1.07,0,0,0,1.1-1,1,1,0,0,0-.55-.78l-3-1.4,3.79-28.9L75.35,87.72V91h4.84a1.08,1.08,0,0,0,1.15-1h0A1,1,0,0,0,80.76,89.12Z"/>
</symbol>
<symbol id="tango" viewBox="0 0 96 96">
<title>tango</title>
    <path d="M45,69.55c-4.06,4-10.13,6.79-16.16,8.68l-3.2,4a5,5,0,0,0,.77,7.08,5.23,5.23,0,0,0,7.23-.76l.12-.15,15.89-20L47,67.62C46.38,68.19,45.71,68.82,45,69.55Zm5-36.23A23.49,23.49,0,0,0,55,32.06a19.9,19.9,0,0,0,4.85-2.61c-1-2.18-2.24-4.45-3-5.69a10.37,10.37,0,0,1-1.76.15,9.87,9.87,0,0,1-2-.19,6,6,0,0,0-2.06,2.17,3.16,3.16,0,0,0-.36.71.35.35,0,0,1-.05.11,46.76,46.76,0,0,1-2.31,5A11.21,11.21,0,0,1,49.93,33.32Zm12.74-6.38a20.87,20.87,0,0,0,1.73-2.15,3,3,0,0,1,.22-.28,4.12,4.12,0,0,1,3.59-2.06,4.29,4.29,0,0,1,1,.12c6.47,1.61,8.68,2.06,8.68,2.06s0,.27.06.71c-1.86-.32-4.8-.95-8.94-2a3.29,3.29,0,0,0-4,2.37,3.21,3.21,0,0,0,2.35,3.87,102.87,102.87,0,0,0,11.09,2.34h.09a14.16,14.16,0,0,0,1.59.11,5.52,5.52,0,0,0,1.76-.26,3.76,3.76,0,0,0,1.46-.93,3.36,3.36,0,0,0,.93-2.32,3.51,3.51,0,0,0-.41-1.59,4.31,4.31,0,0,0-1-1.25,10.92,10.92,0,0,0-1.64-1.14,76.6,76.6,0,0,0-7.53-3.62C71.19,19.81,69.09,19,69.07,19a3.25,3.25,0,0,0-1.41-.23h-.13l-.23,0h0a2.73,2.73,0,0,0-.41.1A29,29,0,0,0,63.11,20a6.57,6.57,0,0,1-.48.57,35.24,35.24,0,0,1,0,6.33ZM74.92,58.17a54.75,54.75,0,0,1-2.24-7.81c-.2-.93-.31-1.61-.37-2.08,0-.23-.06-.41-.07-.49a.24.24,0,0,1,0-.1V47.6C73.81,41.09,74.5,37,74.21,32c-1.65-.35-3.66-.81-6-1.4a26.4,26.4,0,0,1-10.75,7.47c-.73.27-1.45.51-2.16.71-.1,2.21-.82,4.94-2.24,8.89a.36.36,0,0,1,0,.1l-5.93,7.43a1.46,1.46,0,0,1,0,.22,49.26,49.26,0,0,1,9.73,4l5.8-7.31c1.33,6.66,5.69,21.76,19.49,37a5.21,5.21,0,0,0,7.25.37,4.94,4.94,0,0,0,.43-7A73.76,73.76,0,0,1,74.92,58.17Zm-40.76-13c-1.76.43-.68,6.34.79,6.34a3.31,3.31,0,0,0,.83-.1l3.69-.9a3.21,3.21,0,0,0,2.4-3.9,3.29,3.29,0,0,0-4-2.35h0Z"/>
    <ellipse cx="55.16" cy="14.05" rx="9.25" ry="9.05"/>
    <path d="M8.64,82.13,6.51,83.86a4,4,0,0,0-.58,5.66,4.16,4.16,0,0,0,5.78.57l0,0L25,79.34A101.85,101.85,0,0,1,8.68,82.13Zm45.54-19c-1.69.4-3,.73-6.5,3.88l5.68,1.63-9.3,14.84a4,4,0,0,0,1,5.6,4.18,4.18,0,0,0,5.73-1c.09-.13.17-.26.25-.4L63.17,68.36a4,4,0,0,0-1.35-5.54,4.36,4.36,0,0,0-1-.43l-2.55-.73h0a17.79,17.79,0,0,1-4.07,1.45Z"/>
    <ellipse cx="36.26" cy="22.86" rx="8.22" ry="8.05"/>
    <path d="M8.62,81.32S33.83,79.43,44.4,69c8.47-8.38,8-5.34,13.49-8-6.71-4-11.31-4.72-11.31-4.72l-.29-1.42a42.59,42.59,0,0,1,1.64-7.13c2.33-.12,4.08-2.16,4.27-5.39A10.34,10.34,0,0,0,52,39.5a30.46,30.46,0,0,1-5.31.46,22,22,0,0,1-2.92-.16A3.23,3.23,0,0,1,41,36.16h0a3.26,3.26,0,0,1,3.25-2.76,3.29,3.29,0,0,1,.45,0h.1l.37,0c.33,0,.86.05,1.54.05s1.37,0,2.29-.11c-2.47-2.82-5.64-3.26-7.11-2.64-1.71.71-3.9,2.12-4.46,7-.17,1.56-.45,3.77-.74,6l1-.24a4.12,4.12,0,0,1,5,2.84,4,4,0,0,1-2.9,4.93l-.14,0-3.7.91-.43.08-.16,1.15A37,37,0,0,1,33.77,57c-.42.25-.83.51-1.24.78a78.94,78.94,0,0,0-13,10.5A81.84,81.84,0,0,0,8.62,81.32Z"/>
    <path d="M57.1,37.32a25.36,25.36,0,0,0,10.14-6.94h0a4.06,4.06,0,0,1-3.1-3.85,20.18,20.18,0,0,1-8.77,6.28,25.11,25.11,0,0,1-8.67,1.54c-.69,0-1.23,0-1.6-.06l-.41,0h-.09a2.46,2.46,0,0,0-2.79,2.05A2.41,2.41,0,0,0,43.86,39a21.89,21.89,0,0,0,2.8.15A30.2,30.2,0,0,0,57.1,37.32Z"/>
</symbol>
<symbol id="facebook" viewBox="0 0 96 96">
<title>facebook</title>
    <path d="M51.68,85.18V51.93H62.89l1.67-13H51.68V30.62c0-3.76,1-6.33,6.43-6.33H65V12.68a93.09,93.09,0,0,0-10-.52c-9.92,0-16.73,6.06-16.73,17.17v9.55H27.07v13H38.24V85.18Z"/>
</symbol>
<symbol id="twitter" viewBox="0 0 96 96">
<title>twitter</title>
    <path d="M37.22,70C57.5,70,68.59,53.23,68.59,38.68c0-.48,0-1,0-1.42a22.5,22.5,0,0,0,5.5-5.72,22.28,22.28,0,0,1-6.34,1.74,11.12,11.12,0,0,0,4.86-6.11,22,22,0,0,1-7,2.67,11,11,0,0,0-19.07,7.55,12.29,12.29,0,0,0,.28,2.51A31.3,31.3,0,0,1,24.07,28.38,11,11,0,0,0,27.48,43.1a11,11,0,0,1-5-1.37v.15a11,11,0,0,0,8.83,10.81,11.09,11.09,0,0,1-5,.2,11,11,0,0,0,10.29,7.65A22.07,22.07,0,0,1,23,65.27a20.71,20.71,0,0,1-2.62-.15A31.31,31.31,0,0,0,37.22,70"/>
</symbol>
<symbol id="youtube" viewBox="0 0 96 96">
<title>youtube</title>
    <polygon points="78.3 45.62 26.7 15.83 26.7 75.41 78.3 45.62"/>
</symbol>

<symbol id="map-pin" viewBox="0 0 24 32">
<title>map-pin</title>
<path d="M12 0c-6.617 0-12 5.394-12 12.022 0 9.927 11.201 19.459 11.678 19.86 0.093 0.079 0.208 0.118 0.322 0.118s0.226-0.038 0.318-0.114c0.477-0.394 11.682-9.762 11.682-19.864 0-6.628-5.383-12.022-12-12.022zM12.002 30.838c-1.841-1.645-11.002-10.259-11.002-18.816 0-6.078 4.935-11.022 11-11.022s11 4.944 11 11.022c0 8.702-9.152 17.193-10.998 18.816zM12 6c-3.309 0-6 2.691-6 6s2.691 6 6 6 6-2.691 6-6-2.691-6-6-6zM12 17c-2.757 0-5-2.243-5-5s2.243-5 5-5 5 2.243 5 5-2.243 5-5 5z"></path>
</symbol>

</defs>
</svg>
